<svg width="11" height="22" viewBox="0 0 11 22" fill="none" xmlns="http://www.w3.org/2000/svg">
<path d="M8.25 0C6.7375 0 5.5 1.2375 5.5 2.75C5.5 4.2625 6.7375 5.5 8.25 5.5C9.7625 5.5 11 4.2625 11 2.75C11 1.2375 9.7625 0 8.25 0ZM4.125 6.875C1.8425 6.875 0 8.7175 0 11H2.75C2.75 10.23 3.355 9.625 4.125 9.625C4.895 9.625 5.5 10.23 5.5 11C5.5 11.77 2.75 15.51 2.75 17.875C2.75 20.24 4.5925 22 6.875 22C9.1575 22 11 20.1575 11 17.875H8.25C8.25 18.645 7.645 19.25 6.875 19.25C6.105 19.25 5.5 18.645 5.5 17.875C5.5 16.885 8.25 12.815 8.25 11C8.25 8.7725 6.4075 6.875 4.125 6.875Z" fill="white"/>
</svg>
