<svg width="87" height="68" viewBox="0 0 87 68" fill="none" xmlns="http://www.w3.org/2000/svg">
<path d="M43.4929 11.3333C49.7614 11.3333 54.8386 6.26167 54.8386 0H62.426C64.837 0 67.1486 0.949166 68.8505 2.64917L85.6704 19.465C87.4432 21.2358 87.4432 24.1117 85.6704 25.8825L78.4801 33.065C76.7074 34.8358 73.8284 34.8358 72.0556 33.065L66.1843 27.2V58.9333C66.1843 63.9342 62.114 68 57.1077 68H29.8781C24.8718 68 20.8016 63.9342 20.8016 58.9333V27.2L14.9302 33.065C13.1574 34.8358 10.2785 34.8358 8.50571 33.065L1.32957 25.8683C-0.44319 24.0975 -0.44319 21.2217 1.32957 19.4508L18.1495 2.64917C19.8514 0.949166 22.1631 0 24.574 0H32.1614C32.1614 6.26167 37.2386 11.3333 43.5071 11.3333H43.4929Z" fill="white"/>
</svg>
