<svg width="34" height="27" viewBox="0 0 34 27" fill="none" xmlns="http://www.w3.org/2000/svg">
<path d="M0 22.7045C0 23.8438 0.447767 24.9363 1.2448 25.7419C2.04183 26.5474 3.12283 27 4.25 27H29.75C30.8772 27 31.9582 26.5474 32.7552 25.7419C33.5522 24.9363 34 23.8438 34 22.7045V10.892H0V22.7045ZM5.00893 16.875C5.00893 16.2647 5.2488 15.6794 5.67578 15.2479C6.10276 14.8163 6.68187 14.5739 7.28571 14.5739H10.9286C11.5324 14.5739 12.1115 14.8163 12.5385 15.2479C12.9655 15.6794 13.2054 16.2647 13.2054 16.875V18.4091C13.2054 19.0194 12.9655 19.6047 12.5385 20.0362C12.1115 20.4678 11.5324 20.7102 10.9286 20.7102H7.28571C6.68187 20.7102 6.10276 20.4678 5.67578 20.0362C5.2488 19.6047 5.00893 19.0194 5.00893 18.4091V16.875ZM29.75 0H4.25C3.12283 0 2.04183 0.452556 1.2448 1.25811C0.447767 2.06366 0 3.15623 0 4.29545V6.28977H34V4.29545C34 3.15623 33.5522 2.06366 32.7552 1.25811C31.9582 0.452556 30.8772 0 29.75 0Z" fill="white"/>
</svg>
