<svg width="420" height="33" viewBox="0 0 420 33" fill="none" xmlns="http://www.w3.org/2000/svg">
<path fill-rule="evenodd" clip-rule="evenodd" d="M0 0.546961V32.453H13.8347C17.3903 32.453 20.0905 31.663 21.9351 30.0829C23.8065 28.4724 24.7421 26.2693 24.7421 23.4738C24.7421 20.7693 23.8733 18.703 22.1356 17.2749C21.3865 16.6592 20.5058 16.1763 19.4934 15.826C19.9801 15.5618 20.4331 15.2547 20.8524 14.9047C22.5633 13.4461 23.4188 11.4102 23.4188 8.79696C23.4188 6.15331 22.5099 4.1174 20.692 2.68923C18.8741 1.26105 16.3344 0.546961 13.0728 0.546961H0ZM13.5941 26.9834H6.45621V18.9157H13.5941C15.0912 18.9157 16.2274 19.25 17.0027 19.9185C17.778 20.5566 18.1656 21.5442 18.1656 22.8812C18.1656 24.279 17.778 25.3122 17.0027 25.9807C16.2274 26.6492 15.0912 26.9834 13.5941 26.9834ZM12.5114 13.7652H6.45621V6.01657H12.5114C13.9283 6.01657 14.9977 6.35083 15.7195 7.01934C16.4413 7.65746 16.8022 8.61464 16.8022 9.89088C16.8022 11.1671 16.4413 12.1395 15.7195 12.808C14.9977 13.4461 13.9283 13.7652 12.5114 13.7652Z" fill="#EBF7FF" fill-opacity="0.05"/>
<path fill-rule="evenodd" clip-rule="evenodd" d="M37.138 31.7693C39.0361 32.5898 41.0946 33 43.3135 33C45.5057 33 47.5241 32.5898 49.3687 31.7693C51.2401 30.9489 52.8575 29.8094 54.2209 28.3508C55.6111 26.8619 56.6938 25.1146 57.4691 23.1091C58.2444 21.0732 58.632 18.8702 58.632 16.5C58.632 14.0994 58.2444 11.9116 57.4691 9.93646C56.6938 7.93094 55.6111 6.1837 54.2209 4.69475C52.8575 3.2058 51.2401 2.0511 49.3687 1.23066C47.5241 0.410221 45.4923 0 43.2734 0C41.0812 0 39.0495 0.410221 37.1781 1.23066C35.3067 2.0511 33.676 3.2058 32.2858 4.69475C30.8957 6.1837 29.8129 7.93094 29.0377 9.93646C28.2891 11.942 27.9148 14.1298 27.9148 16.5C27.9148 18.8702 28.2891 21.058 29.0377 23.0635C29.8129 25.0691 30.8823 26.8163 32.2457 28.3052C33.6359 29.7942 35.2666 30.9489 37.138 31.7693ZM46.7221 25.9807C45.6795 26.4669 44.5299 26.7099 43.2734 26.7099C42.0169 26.7099 40.854 26.4669 39.7847 25.9807C38.7153 25.4945 37.7796 24.7956 36.9776 23.884C36.2023 22.9724 35.5875 21.8936 35.133 20.6478C34.7052 19.3715 34.4914 17.989 34.4914 16.5C34.4914 14.9807 34.7052 13.5981 35.133 12.3522C35.5875 11.1064 36.2157 10.0276 37.0177 9.11602C37.8197 8.20442 38.742 7.50552 39.7847 7.01934C40.854 6.53315 42.0169 6.29005 43.2734 6.29005C44.5299 6.29005 45.6928 6.53315 46.7622 7.01934C47.8315 7.50552 48.7539 8.20442 49.5291 9.11602C50.3312 10.0276 50.946 11.1064 51.3738 12.3522C51.8282 13.5981 52.0555 14.9807 52.0555 16.5C52.0555 18.0193 51.8282 19.4019 51.3738 20.6478C50.946 21.8936 50.3312 22.9724 49.5291 23.884C48.7271 24.7956 47.7914 25.4945 46.7221 25.9807Z" fill="#EBF7FF" fill-opacity="0.05"/>
<path d="M70.8545 31.8149C72.7259 32.605 74.7443 33 76.9098 33C79.3693 33 81.5748 32.5138 83.5264 31.5414C85.5047 30.5691 87.1622 29.1561 88.4989 27.3025L88.2106 27H67V6H88.1671L88.4989 5.65193C87.1622 3.79834 85.5047 2.40055 83.5264 1.45856C81.5748 0.486188 79.3826 0 76.9499 0C74.7577 0 72.7393 0.410221 70.8946 1.23066C69.05 2.02072 67.4326 3.16022 66.0425 4.64917C64.679 6.13812 63.6097 7.88536 62.8344 9.89088C62.0859 11.8964 61.7116 14.0994 61.7116 16.5C61.7116 18.9006 62.0859 21.1036 62.8344 23.1091C63.6097 25.1146 64.679 26.8619 66.0425 28.3508C67.4059 29.8398 69.0099 30.9945 70.8545 31.8149Z" fill="#EBF7FF" fill-opacity="0.05"/>
<path d="M93.4466 27C93.7905 27.4717 94.1589 27.922 94.5515 28.3508C95.915 29.8398 97.519 30.9945 99.3636 31.8149C101.235 32.605 103.253 33 105.419 33C107.878 33 110.084 32.5138 112.035 31.5414C114.014 30.5691 115.671 29.1561 117.008 27.3025L116.72 27H93.4466Z" fill="#EBF7FF" fill-opacity="0.05"/>
<path d="M116.676 6H93.4466C93.7905 5.5283 94.1589 5.07802 94.5515 4.64917C95.9417 3.16022 97.5591 2.02072 99.4037 1.23066C101.248 0.410221 103.267 0 105.459 0C107.892 0 110.084 0.486188 112.035 1.45856C114.014 2.40055 115.671 3.79834 117.008 5.65193L116.676 6Z" fill="#EBF7FF" fill-opacity="0.05"/>
<path d="M127.023 27V32.453H133.439V27H127.023Z" fill="#EBF7FF" fill-opacity="0.05"/>
<path d="M142.422 6V0.546961H118.081V6H142.422Z" fill="#EBF7FF" fill-opacity="0.05"/>
<path d="M144.061 27L141.923 32.453H148.579L150.574 27H144.061Z" fill="#EBF7FF" fill-opacity="0.05"/>
<path d="M164.597 27L166.584 32.453H173.401L171.256 27H164.597Z" fill="#EBF7FF" fill-opacity="0.05"/>
<path d="M162.995 6L160.85 0.546961H154.434L152.296 6H162.995Z" fill="#EBF7FF" fill-opacity="0.05"/>
<path d="M177.125 27V32.453H183.621V27H177.125Z" fill="#EBF7FF" fill-opacity="0.05"/>
<path d="M196.373 27V32.453H202.87V27H196.373Z" fill="#EBF7FF" fill-opacity="0.05"/>
<path d="M211.196 27C211.531 27.4551 211.888 27.8902 212.268 28.3052C213.658 29.7942 215.289 30.9489 217.16 31.7693C219.058 32.5898 221.117 33 223.336 33C225.528 33 227.546 32.5898 229.391 31.7693C231.262 30.9489 232.88 29.8094 234.243 28.3508C234.644 27.922 235.018 27.4717 235.368 27H211.196Z" fill="#EBF7FF" fill-opacity="0.05"/>
<path d="M235.334 6H211.217C211.557 5.54485 211.921 5.10977 212.308 4.69475C213.698 3.2058 215.329 2.0511 217.2 1.23066C219.072 0.410221 221.103 0 223.296 0C225.515 0 227.546 0.410221 229.391 1.23066C231.262 2.0511 232.88 3.2058 234.243 4.69475C234.631 5.10977 234.994 5.54485 235.334 6Z" fill="#EBF7FF" fill-opacity="0.05"/>
<path d="M243.659 27V32.453H257.494C261.05 32.453 263.75 31.663 265.594 30.0829C266.593 29.2238 267.325 28.1962 267.79 27H243.659Z" fill="#EBF7FF" fill-opacity="0.05"/>
<path d="M266.67 6H243.659V0.546961H256.732C259.994 0.546961 262.533 1.26105 264.351 2.68923C265.465 3.56454 266.238 4.66813 266.67 6Z" fill="#EBF7FF" fill-opacity="0.05"/>
<path d="M270.962 27L270.611 32.453C271.226 32.605 271.788 32.7265 272.296 32.8177C272.83 32.9088 273.338 32.9544 273.82 32.9544C275.45 32.9544 276.8 32.5138 277.87 31.6326C278.939 30.7514 279.781 29.4599 280.396 27.7583C280.485 27.5131 280.57 27.2603 280.652 27H270.962Z" fill="#EBF7FF" fill-opacity="0.05"/>
<path d="M292.146 27V32.453H298.562V27H292.146Z" fill="#EBF7FF" fill-opacity="0.05"/>
<path d="M298.562 6V0.546961H276.987L276.819 6H298.562Z" fill="#EBF7FF" fill-opacity="0.05"/>
<path d="M305.572 27V32.453H327.306V27H305.572Z" fill="#EBF7FF" fill-opacity="0.05"/>
<path d="M326.785 6H305.572V0.546961H326.785V6Z" fill="#EBF7FF" fill-opacity="0.05"/>
<path d="M332.554 27V32.453H339.05V27H332.554Z" fill="#EBF7FF" fill-opacity="0.05"/>
<path d="M351.802 27V32.453H358.298V0.546961H351.802V6H352V27H351.802Z" fill="#EBF7FF" fill-opacity="0.05"/>
<path d="M339.05 6H332.554V0.546961H339.05V6Z" fill="#EBF7FF" fill-opacity="0.05"/>
<path d="M202.87 6H196.373V0.546961H202.87V6Z" fill="#EBF7FF" fill-opacity="0.05"/>
<path d="M183.621 6H177.125V0.546961H183.621V6Z" fill="#EBF7FF" fill-opacity="0.05"/>
<path d="M371.787 0.546961H365.331V32.453H371.466L384.86 11.7141V32.453H391.276V0.546961H385.181L371.787 21.3315V0.546961Z" fill="#EBF7FF" fill-opacity="0.05"/>
<path d="M404.722 19.1436V26.5276H420V32.453H398.265V0.546961H419.479V6.47238H404.722V13.4006H417.754V19.1436H404.722Z" fill="#EBF7FF" fill-opacity="0.05"/>
</svg>
